<?xml version="1.0" encoding="UTF-8"?>
<svg xmlns="http://www.w3.org/2000/svg" xmlns:xlink="http://www.w3.org/1999/xlink" width="60px" height="60px" viewBox="0 0 60 59" version="1.1">
<g id="surface1">
<path style=" stroke:none;fill-rule:nonzero;fill:rgb(25.098041%,27.450982%,29.803923%);fill-opacity:1;" d="M 16.875 0 L 43.125 0 C 52.445312 0 60 7.429688 60 16.59375 L 60 42.40625 C 60 51.570312 52.445312 59 43.125 59 L 16.875 59 C 7.554688 59 0 51.570312 0 42.40625 L 0 16.59375 C 0 7.429688 7.554688 0 16.875 0 Z M 16.875 0 "/>
<path style=" stroke:none;fill-rule:evenodd;fill:rgb(100%,100%,100%);fill-opacity:1;" d="M 15.601562 36.875 L 15.601562 24.808594 L 19.855469 24.808594 L 19.855469 36.875 C 19.855469 38.683594 21.34375 40.148438 23.183594 40.148438 L 30.242188 40.148438 L 32.207031 44.328125 L 23.183594 44.328125 C 18.996094 44.328125 15.601562 40.992188 15.601562 36.875 Z M 40.828125 22.796875 C 40.828125 20.988281 39.335938 19.523438 37.5 19.523438 L 15.683594 19.523438 L 15.683594 15.339844 L 37.5 15.339844 C 41.6875 15.339844 45.082031 18.679688 45.082031 22.796875 L 45.082031 29.453125 L 40.828125 28.257812 Z M 40.828125 22.796875 "/>
<path style=" stroke:none;fill-rule:nonzero;fill:rgb(100%,100%,100%);fill-opacity:1;" d="M 50.347656 34.859375 L 50.722656 38.746094 L 44.753906 41.679688 L 42.960938 48.152344 L 39.023438 48.570312 L 30.839844 33.148438 L 33.300781 30.167969 Z M 40.285156 41.902344 L 41.152344 38.773438 L 43.890625 37.425781 L 36.886719 35.5 Z M 40.285156 41.902344 "/>
</g>
</svg>
